<svg width="18" height="18" viewBox="0 0 18 18" fill="none" xmlns="http://www.w3.org/2000/svg" class="w-4 h-4 text-gray-400 group-hover/ask-ai-button:text-gray-500 dark:text-white/40 dark:group-hover/ask-ai-button:text-white/60"><path d="M3.51169 1.50098L3.92087 2.72754L3.99997 2.96387L5.49997 3.46387L4.23825 3.88477L4.00095 3.96387L3.92184 4.20117L3.50095 5.46191L3.49997 5.46387H3.49899L2.99899 3.96387L1.49899 3.46387L2.99899 2.96387L3.07809 2.72754L3.4863 1.50098C3.49031 1.50045 3.49522 1.5 3.49997 1.5C3.50416 1.50002 3.50807 1.50054 3.51169 1.50098Z" stroke="currentColor"></path><path d="M9.5 2.75L11.412 7.587L16.25 9.5L11.412 11.413L9.5 16.25L7.587 11.413L2.75 9.5L7.587 7.587L9.5 2.75Z" stroke="currentColor" stroke-width="1.5" stroke-linecap="round" stroke-linejoin="round"></path></svg>
