<?xml version="1.0" encoding="UTF-8" standalone="no"?>
<!DOCTYPE svg PUBLIC "-//W3C//DTD SVG 1.1//EN" "http://www.w3.org/Graphics/SVG/1.1/DTD/svg11.dtd">
<svg width="100%" height="100%" viewBox="0 0 222 50" version="1.1" xmlns="http://www.w3.org/2000/svg" xmlns:xlink="http://www.w3.org/1999/xlink" xml:space="preserve" xmlns:serif="http://www.serif.com/" style="fill-rule:evenodd;clip-rule:evenodd;stroke-linejoin:round;stroke-miterlimit:2;">
    <g id="Artboard1" transform="matrix(0.957793,0,0,0.986729,7.70066,-39.273)">
        <rect x="-8.04" y="39.801" width="231.783" height="50.672" style="fill:none;"/>
        <g id="barcode" transform="matrix(1.04407,0,0,1.01345,-9.14053,0.276633)">
            <g transform="matrix(1,0,0,1,-0.945923,0)">
                <path d="M10,50L12,50L12,70L10,70L10,50ZM16,50L18,50L18,70L16,70L16,50ZM20,50L24,50L24,70L20,70L20,50ZM26,50L30,50L30,70L26,70L26,50ZM32,50L34,50L34,70L32,70L32,50ZM36,50L40,50L40,70L36,70L36,50ZM42,50L46,50L46,70L42,70L42,50ZM48,50L50,50L50,70L48,70L48,50ZM54,50L56,50L56,70L54,70L54,50ZM58,50L60,50L60,70L58,70L58,50ZM62,50L64,50L64,70L62,70L62,50ZM66,50L70,50L70,70L66,70L66,50ZM72,50L74,50L74,70L72,70L72,50ZM76,50L78,50L78,70L76,70L76,50ZM82,50L86,50L86,70L82,70L82,50ZM88,50L92,50L92,70L88,70L88,50ZM94,50L96,50L96,70L94,70L94,50ZM98,50L100,50L100,70L98,70L98,50ZM104,50L106,50L106,70L104,70L104,50ZM108,50L112,50L112,70L108,70L108,50ZM114,50L118,50L118,70L114,70L114,50ZM122,50L124,50L124,70L122,70L122,50ZM126,50L130,50L130,70L126,70L126,50ZM132,50L134,50L134,70L132,70L132,50ZM136,50L138,50L138,70L136,70L136,50ZM140,50L142,50L142,70L140,70L140,50ZM144,50L148,50L148,70L144,70L144,50ZM150,50L152,50L152,70L150,70L150,50ZM154,50L156,50L156,70L154,70L154,50ZM160,50L164,50L164,70L160,70L160,50ZM166,50L170,50L170,70L166,70L166,50ZM172,50L174,50L174,70L172,70L172,50ZM176,50L180,50L180,70L176,70L176,50ZM182,50L184,50L184,70L182,70L182,50ZM188,50L190,50L190,70L188,70L188,50ZM192,50L194,50L194,70L192,70L192,50ZM198,50L200,50L200,70L198,70L198,50ZM202,50L206,50L206,70L202,70L202,50ZM208,50L212,50L212,70L208,70L208,50ZM214,50L216,50L216,70L214,70L214,50Z" style="fill:rgb(107,114,125);fill-rule:nonzero;"/>
            </g>
            <g transform="matrix(1,0,0,1,29.2004,6.33111)">
                <g transform="matrix(12,0,0,12,37.0945,75.5887)">
                    <path d="M0.441,-0.174C0.43,-0.105 0.409,-0.09 0.324,-0.09C0.219,-0.09 0.195,-0.135 0.195,-0.342C0.195,-0.546 0.219,-0.59 0.324,-0.59C0.402,-0.59 0.422,-0.575 0.435,-0.502L0.543,-0.502C0.531,-0.656 0.492,-0.69 0.324,-0.69C0.135,-0.69 0.084,-0.615 0.084,-0.34C0.084,-0.053 0.127,0.01 0.324,0.01C0.496,0.01 0.537,-0.023 0.549,-0.174L0.441,-0.174Z" style="fill:rgb(107,114,125);fill-rule:nonzero;"/>
                </g>
                <g transform="matrix(12,0,0,12,53.8945,75.5887)">
                    <path d="M0.107,-0L0.539,-0L0.539,-0.101L0.217,-0.101L0.217,-0.68L0.107,-0.68L0.107,-0Z" style="fill:rgb(107,114,125);fill-rule:nonzero;"/>
                </g>
                <g transform="matrix(12,0,0,12,70.6945,75.5887)">
                    <path d="M0.03,-0L0.136,-0L0.177,-0.156L0.421,-0.156L0.465,-0L0.57,-0L0.387,-0.68L0.213,-0.68L0.03,-0ZM0.202,-0.253L0.291,-0.584L0.31,-0.584L0.398,-0.253L0.202,-0.253Z" style="fill:rgb(107,114,125);fill-rule:nonzero;"/>
                </g>
                <g transform="matrix(12,0,0,12,87.4945,75.5887)">
                    <path d="M0.244,-0L0.354,-0L0.354,-0.277L0.543,-0.68L0.427,-0.68L0.302,-0.395L0.297,-0.395L0.173,-0.68L0.056,-0.68L0.244,-0.277L0.244,-0Z" style="fill:rgb(107,114,125);fill-rule:nonzero;"/>
                </g>
                <g transform="matrix(12,0,0,12,104.295,75.5887)">
                    <path d="M0.107,-0L0.539,-0L0.539,-0.101L0.217,-0.101L0.217,-0.68L0.107,-0.68L0.107,-0Z" style="fill:rgb(107,114,125);fill-rule:nonzero;"/>
                </g>
                <g transform="matrix(12,0,0,12,121.095,75.5887)">
                    <path d="M0.3,0.009C0.499,0.009 0.543,-0.054 0.543,-0.341C0.543,-0.627 0.499,-0.69 0.3,-0.69C0.1,-0.69 0.056,-0.627 0.056,-0.341C0.056,-0.054 0.1,0.009 0.3,0.009ZM0.3,-0.091C0.191,-0.091 0.166,-0.136 0.166,-0.34C0.166,-0.545 0.191,-0.59 0.3,-0.59C0.409,-0.59 0.433,-0.545 0.433,-0.34C0.433,-0.136 0.409,-0.091 0.3,-0.091Z" style="fill:rgb(107,114,125);fill-rule:nonzero;"/>
                </g>
            </g>
        </g>
    </g>
</svg>
